<?xml version="1.0" encoding="UTF-8" standalone="no"?>
<svg
   height="48"
   viewBox="0 -960 960 960"
   width="48"
   version="1.1"
   id="svg1"
   sodipodi:docname="spawn.svg"
   inkscape:version="1.3.2 (091e20e, 2023-11-25, custom)"
   xmlns:inkscape="http://www.inkscape.org/namespaces/inkscape"
   xmlns:sodipodi="http://sodipodi.sourceforge.net/DTD/sodipodi-0.dtd"
   xmlns="http://www.w3.org/2000/svg"
   xmlns:svg="http://www.w3.org/2000/svg">
  <defs
     id="defs1" />
  <sodipodi:namedview
     id="namedview1"
     pagecolor="#ffffff"
     bordercolor="#000000"
     borderopacity="0.25"
     inkscape:showpageshadow="2"
     inkscape:pageopacity="0.0"
     inkscape:pagecheckerboard="0"
     inkscape:deskcolor="#d1d1d1"
     inkscape:zoom="14.979167"
     inkscape:cx="24"
     inkscape:cy="23.96662"
     inkscape:window-width="1920"
     inkscape:window-height="1057"
     inkscape:window-x="-8"
     inkscape:window-y="-8"
     inkscape:window-maximized="1"
     inkscape:current-layer="svg1" />
  <path
     d="M479.945-59q-87.053 0-164.146-32.604-77.094-32.603-134.343-89.852-57.249-57.249-89.852-134.41Q59-393.028 59-480.362q0-87.228 32.662-163.934 32.663-76.706 90.042-134.279 57.378-57.574 134.252-90.499Q392.829-902 479.836-902q87.369 0 164.498 32.848 77.129 32.849 134.41 90.303 57.281 57.454 90.269 134.523Q902-567.257 902-479.724q0 87.468-32.926 164.044-32.925 76.575-90.499 133.781-57.573 57.205-134.447 90.052Q567.255-59 479.945-59Zm.055-91q125.375 0 216.688-81.5Q788-313 805-433q0 1.818.5 3.659.5 1.841.5 1.341-12 16-28.892 24T739-396h-73q-37.188 0-62.594-25.504T578-484.333V-528H402v-79.584q0-37.254 25.504-62.835Q453.008-696 489.333-696h45.513v-22q0-20.155 15.077-47.578Q565-793 585-794q-23.992-6.818-49.875-11.409Q509.243-810 480.36-810q-136.873 0-233.616 96.556Q150-616.888 150-480q0 3 .5 5.5t.5 6.5h111q73.05 0 124.025 50.975Q437-366.05 437-293.943V-250H306v57q39 19 82.45 31T480-150Z"
     id="path1"
     style="fill:#ffffff;fill-opacity:1" />
</svg>
